#usda 1.0
(
    defaultPrim = "World"
    metersPerUnit = 1
    upAxis = "Z"
)

def Xform "World"
{
    def Xform "Wolf"
    {
        quatd xformOp:orient = (0.7069121535450411, 0.01797174527035202, -0.015080806097892772, 0.706912153545041)
        double3 xformOp:scale = (0.48237264719039735, 0.48237264719039735, 0.48237264719039735)
        double3 xformOp:translate = (-0.006642241348626374, 0.025766084130850683, 0.0983511671963001)
        uniform token[] xformOpOrder = ["xformOp:translate", "xformOp:orient", "xformOp:scale"]

        def "Splat" (
            prepend references = @./wolf_splat.usd@
        )
        {
        }
    }
}

